# xmcd CD database file
#
# Track frame offsets:
#	150
#	20562
#	41404
#	61275
#	79372
#	97466
#	115997
#	137457
#	156691
#	183894
#	202086
#	223888
#	243749
#	262049
#	279963
#	300106
#
# Disc length: 4296 seconds
#
# Revision: 0
# Processed by: cddbd v1.5.1PL0 Copyright (c) Steve Scherf et al.
# Submitted via: CDex 1.51
#
DISCID=f110c610
DTITLE=Various Artist - Planets of the Universe 2 - CD 1
DYEAR=1996
DGENRE=New Age
TTITLE0=Tangerine Dream - White Eagle
TTITLE1=Brainwork - Musical Clock
TTITLE2=Kowa - Beyond the horizon
TTITLE3=Gandalf - Dreamcatcher part 2
TTITLE4=John Mark - In my Heart
TTITLE5=Eroc - Space Shuffle
TTITLE6=GENE - Kowloon Harbour
TTITLE7=Dieter Schutz - So Far
TTITLE8=Klaus Schulze - Nowhere Now here
TTITLE9=Roman - Take me to the stars
TTITLE10=Venja - Arcadia memory
TTITLE11=Rick Wakeman - Innermost thoughts
TTITLE12=Strange Inside - The end of summer
TTITLE13=Software - I love your sax
TTITLE14=Albert von Deyen - Silver Rain
TTITLE15=John Kerr - Harbours
EXTD=YEAR: 1996
EXTT0=
EXTT1=
EXTT2=
EXTT3=
EXTT4=
EXTT5=
EXTT6=
EXTT7=
EXTT8=
EXTT9=
EXTT10=
EXTT11=
EXTT12=
EXTT13=
EXTT14=
EXTT15=
PLAYORDER=
